# xmcd CD database file
#
# Track frame offsets:
#	182
#	12610
#	25012
#	36660
#	48617
#	61842
#	72785
#	85190
#	96092
#	108602
#	122120
#
# Disc length: 1782 seconds
#
# Revision: 2
# Processed by: cddbd v1.5.1PL2 Copyright (c) Steve Scherf et al.
# Submitted via: CDex 1.70beta2
#
DISCID=9606f40b
DTITLE=Hank Williams - American Legends
DYEAR=1994
DGENRE=Country
TTITLE0=Move It on Over
TTITLE1=Honky Tonkin'
TTITLE2=My Bucket's Got a Hole in it
TTITLE3=Long Gone Lonesome Blues
TTITLE4=Wedding Bells
TTITLE5=Moanin' the Blues
TTITLE6=Lovesick Blues
TTITLE7=Why Don't You Love Me
TTITLE8=They'll Never Take Her Love From Me
TTITLE9=Your're Gonna Change or I'm Gonna Leave
TTITLE10=A Mansion on the Hill
EXTD=YEAR: 1994
EXTT0=
EXTT1=
EXTT2=
EXTT3=
EXTT4=
EXTT5=
EXTT6=
EXTT7=
EXTT8=
EXTT9=
EXTT10=
PLAYORDER=
